<svg width="600" height="150" viewBox="0 0 600 150" fill="none" xmlns="http://www.w3.org/2000/svg">
<path d="M0 143.768L20.0467 146.255C40.2336 148.712 80.3271 153.686 120.28 145.436C160.234 137.186 200.047 115.773 240 104.702C279.953 93.6312 320.047 92.9033 360 96.3003C399.953 99.6974 439.766 107.159 479.72 109.555C519.673 111.921 559.766 109.191 579.953 107.826L600 106.461V0H579.953C559.766 0 519.673 0 479.72 0C439.766 0 399.953 0 360 0C320.047 0 279.953 0 240 0C200.047 0 160.234 0 120.28 0C80.3271 0 40.2336 0 20.0467 0H0V143.768Z" fill="url(#paint0_linear_8_59)"/>
<defs>
<linearGradient id="paint0_linear_8_59" x1="0" y1="0" x2="62.8863" y2="331.208" gradientUnits="userSpaceOnUse">
<stop stop-color="#DF0CE3"/>
<stop offset="0.99881" stop-color="#2B0A71" stop-opacity="0.59"/>
</linearGradient>
</defs>
</svg>
