<svg width="744" height="326" viewBox="0 0 744 326" fill="none" xmlns="http://www.w3.org/2000/svg">
<path d="M0 312.456L24.8579 317.861C49.8897 323.201 99.6056 334.011 149.148 316.081C198.69 298.152 248.058 251.613 297.6 227.552C347.142 203.492 396.858 201.91 446.4 209.293C495.942 216.676 545.31 232.892 594.852 238.099C644.394 243.241 694.11 237.308 719.142 234.342L744 231.376V0H719.142C694.11 0 644.394 0 594.852 0C545.31 0 495.942 0 446.4 0C396.858 0 347.142 0 297.6 0C248.058 0 198.69 0 149.148 0C99.6056 0 49.8897 0 24.8579 0H0V312.456Z" fill="url(#paint0_linear_30_4)"/>
<defs>
<linearGradient id="paint0_linear_30_4" x1="0" y1="0" x2="223.436" y2="671.419" gradientUnits="userSpaceOnUse">
<stop stop-color="#DF0CE3"/>
<stop offset="0.99881" stop-color="#2B0A71" stop-opacity="0.59"/>
</linearGradient>
</defs>
</svg>
