<svg id="visual" viewBox="0 0 900 200" width="900" height="200" xmlns="http://www.w3.org/2000/svg" xmlns:xlink="http://www.w3.org/1999/xlink" version="1.1"><path d="M0 123L25 133.8C50 144.7 100 166.3 150 171.8C200 177.3 250 166.7 300 155.5C350 144.3 400 132.7 450 127.5C500 122.3 550 123.7 600 127.3C650 131 700 137 750 143.2C800 149.3 850 155.7 875 158.8L900 162L900 201L875 201C850 201 800 201 750 201C700 201 650 201 600 201C550 201 500 201 450 201C400 201 350 201 300 201C250 201 200 201 150 201C100 201 50 201 25 201L0 201Z" fill="#ffffff" stroke-linecap="round" stroke-linejoin="miter"></path></svg>